<?xml version="1.0" standalone="no"?>
<!DOCTYPE svg PUBLIC "-//W3C//DTD SVG 20010904//EN"
 "http://www.w3.org/TR/2001/REC-SVG-20010904/DTD/svg10.dtd">
<svg version="1.0" xmlns="http://www.w3.org/2000/svg"
 width="170.000000pt" height="160.000000pt" viewBox="0 0 170.000000 160.000000"
 preserveAspectRatio="xMidYMid meet">

<g transform="translate(0.000000,160.000000) scale(0.100000,-0.100000)"
fill="#000000" stroke="none">
<path d="M753 1565 c-223 -49 -416 -272 -480 -556 -17 -75 -19 -78 -48 -82
-28 -4 912 -9 1153 -7 160 2 255 -9 248 -27 -4 -9 6 -6 27 9 l32 23 -110 3
-110 3 -18 78 c-38 169 -114 308 -225 412 -141 134 -297 181 -469 144z m-8
-165 c9 -27 21 -50 26 -50 6 0 7 -5 4 -10 -9 -15 -24 -3 -39 33 l-14 32 -1
-45 -2 -45 -31 35 c-18 19 -29 27 -25 16 16 -40 19 -66 8 -66 -6 0 -11 12 -11
28 0 15 -7 39 -14 54 -21 41 -2 43 32 4 l30 -34 6 49 c4 27 8 49 11 49 2 0 11
-22 20 -50z m135 41 c0 -4 -11 -6 -25 -3 -20 3 -25 0 -25 -17 0 -15 7 -21 23
-22 l22 -2 -22 -4 c-15 -3 -23 -12 -23 -25 0 -16 5 -19 25 -16 14 3 25 1 25
-3 0 -5 -16 -9 -35 -9 l-35 0 6 40 c4 26 2 45 -6 55 -11 13 -7 15 29 15 22 0
41 -4 41 -9z m101 -49 c7 -25 15 -39 17 -31 13 40 23 61 27 57 7 -7 -25 -98
-35 -98 -4 0 -13 21 -20 48 l-12 47 -15 -43 c-8 -24 -17 -41 -20 -38 -3 3 2
26 11 52 8 25 13 50 10 55 -3 5 1 6 9 3 8 -3 21 -26 28 -52z m129 -27 c-11
-13 -10 -19 5 -35 16 -18 20 -19 35 -5 29 26 35 16 7 -12 -14 -16 -30 -39 -35
-53 -9 -22 -11 -23 -17 -7 -5 12 -2 24 8 34 14 14 14 18 -6 34 -21 17 -23 17
-39 -4 -9 -12 -20 -18 -24 -14 -4 4 7 22 24 40 18 18 32 39 32 47 0 11 3 11
12 2 8 -8 8 -15 -2 -27z m-503 -72 c13 -13 18 -25 12 -29 -6 -3 -11 -4 -13 -3
-30 43 -48 61 -43 44 3 -11 9 -33 13 -49 l7 -30 -31 22 c-38 28 -47 28 -28 0
9 -12 16 -29 16 -38 0 -8 -12 5 -26 30 -14 25 -30 48 -36 51 -7 4 -6 9 1 13 6
4 24 -2 40 -13 16 -12 32 -21 35 -21 3 0 3 21 0 48 l-5 47 18 -25 c10 -14 28
-35 40 -47z m419 -28 c105 -47 230 -205 237 -302 l2 -28 -392 -2 -392 -2 18
52 c29 83 59 136 109 189 113 121 273 157 418 93z m224 -5 c24 -24 24 -29 4
-58 -25 -37 -52 -46 -80 -27 -30 20 -31 57 -2 85 28 25 52 26 78 0z m-789 -65
c24 -9 50 -13 57 -10 12 4 12 3 3 -9 -10 -12 -19 -13 -54 -2 -23 7 -46 13 -52
14 -13 1 -19 22 -7 22 5 0 29 -7 53 -15z m-6 -27 c5 4 5 -1 2 -10 -3 -9 1 -22
9 -28 8 -7 14 -18 14 -24 -1 -6 -14 5 -30 24 -31 35 -41 61 -17 41 8 -6 18 -7
22 -3z m866 -22 c-6 -7 -25 -19 -41 -26 -17 -7 -30 -15 -30 -19 0 -11 15 -28
30 -34 11 -4 9 -6 -6 -6 -13 -1 -25 8 -32 24 -10 22 -8 26 28 46 22 13 40 30
40 38 0 11 3 12 12 3 8 -8 8 -15 -1 -26z m-936 -66 c3 -6 -1 -7 -9 -4 -12 4
-16 0 -16 -16 0 -19 4 -21 23 -15 50 15 62 12 62 -20 0 -21 -5 -30 -18 -31
-12 -1 -13 -1 -2 3 8 2 15 14 15 25 0 17 -4 19 -22 13 -42 -13 -62 -10 -66 8
-7 35 17 63 33 37z m1015 -66 c0 -45 -66 -68 -100 -34 -29 29 -22 50 25 68 22
9 42 20 44 25 5 14 30 -34 31 -59z"/>
<path d="M1185 1246 c-32 -33 -29 -60 7 -64 50 -6 76 70 30 86 -6 2 -23 -8
-37 -22z"/>
<path d="M1330 1033 c-45 -19 -45 -20 -30 -38 26 -31 95 -5 88 33 -4 21 -17
23 -58 5z"/>
<path d="M50 926 c0 -2 25 -23 55 -46 30 -23 55 -46 55 -50 0 -4 -29 -20 -65
-36 -35 -16 -65 -32 -65 -36 0 -7 9 -9 142 -29 l78 -12 5 -36 c35 -219 114
-381 244 -503 218 -207 504 -207 722 -1 131 124 208 284 244 506 l6 37 99 0
c55 0 100 3 100 8 0 4 -27 28 -60 52 -37 28 -58 50 -55 59 5 11 3 12 -10 1
-19 -16 -15 -22 41 -61 30 -22 40 -35 32 -40 -7 -4 -323 -8 -703 -8 -624 0
-697 1 -765 17 l-74 18 57 24 c31 14 57 29 57 34 0 4 -19 26 -42 47 l-43 38
37 1 c20 0 40 5 43 10 4 6 -20 10 -64 10 -39 0 -71 -2 -71 -4z m451 -228 c0
-13 4 -32 9 -43 6 -14 7 -6 3 23 l-6 42 387 0 c220 0 386 -4 386 -9 0 -5 -9
-38 -20 -73 -39 -126 -131 -236 -239 -287 -47 -22 -70 -26 -141 -26 -71 0 -94
4 -140 26 -69 33 -138 94 -180 160 -32 50 -80 166 -80 194 0 24 20 17 21 -7z
m-67 -77 c3 -5 -10 -21 -28 -35 -19 -14 -36 -36 -39 -48 -3 -21 -4 -21 -11 -5
-6 12 -3 24 8 36 14 15 14 20 3 29 -7 6 -24 8 -37 5 -16 -4 -21 -3 -16 5 4 7
24 12 44 11 20 0 31 -3 24 -6 -6 -2 -9 -9 -6 -14 3 -6 11 -6 20 2 7 6 11 15 8
20 -3 5 2 9 10 9 8 0 17 -4 20 -9z m946 -26 c25 -13 38 -24 30 -25 -20 0 -100
33 -100 43 0 13 24 7 70 -18z m-52 -99 c3 -26 7 -28 38 -24 21 2 33 0 31 -6
-2 -6 -21 -10 -41 -10 -35 1 -36 1 -20 -17 33 -37 8 -27 -35 13 l-44 41 23 19
c29 24 44 19 48 -16z m-858 1 c0 -7 -16 -25 -36 -40 -29 -24 -33 -31 -23 -43
7 -8 19 -12 28 -9 13 5 14 4 3 -7 -10 -10 -16 -8 -34 10 l-22 22 37 38 c21 21
34 42 30 47 -5 4 -2 5 5 1 6 -4 12 -13 12 -19z m785 -67 c3 -5 -3 -10 -14 -10
-26 0 -36 -17 -20 -36 8 -10 15 -12 23 -4 5 5 15 10 21 10 5 0 2 -7 -8 -14
-15 -12 -17 -18 -7 -36 21 -39 2 -33 -26 9 -14 23 -32 41 -38 41 -11 0 44 49
56 50 4 0 10 -4 13 -10z m-700 -86 c-8 -16 -18 -44 -21 -62 -4 -20 -10 -30
-16 -24 -5 5 -5 19 1 35 11 28 3 35 -17 15 -6 -6 -14 -9 -17 -6 -3 3 12 20 35
38 23 18 37 37 34 43 -5 9 -4 9 5 1 9 -8 8 -18 -4 -40z m45 -14 c8 -5 12 -11
9 -14 -3 -3 -14 1 -25 9 -21 16 -8 20 16 5z m539 -57 c17 -47 22 -50 45 -27
14 13 16 13 16 1 0 -12 -27 -26 -52 -27 -3 0 -12 16 -18 35 -6 19 -19 42 -28
51 -14 15 -14 16 3 13 11 -3 24 -21 34 -46z m-463 -42 c-10 -11 -16 -31 -14
-48 2 -22 9 -29 30 -31 22 -3 30 2 38 23 13 35 13 41 -6 59 -14 14 -14 16 0
16 21 0 39 -37 32 -66 -13 -52 -100 -58 -112 -8 -8 32 10 74 32 74 16 0 16 -1
0 -19z m382 7 c15 -15 16 -53 2 -79 -11 -20 -45 -25 -69 -10 -18 11 -19 65 -1
85 15 19 51 21 68 4z m-208 -33 c0 -20 5 -25 25 -25 18 0 25 5 25 19 0 11 4
22 9 25 5 4 11 -19 13 -49 2 -39 -1 -55 -9 -55 -7 0 -13 11 -13 25 0 20 -5 25
-25 25 -20 0 -25 -5 -25 -25 0 -14 -4 -25 -9 -25 -6 0 -9 25 -8 55 2 53 17 80
17 30z"/>
<path d="M1280 501 c0 -12 29 -35 36 -28 11 10 -5 37 -21 37 -8 0 -15 -4 -15
-9z"/>
<path d="M1000 219 c-16 -28 2 -72 28 -67 24 5 25 81 0 86 -9 2 -22 -6 -28
-19z"/>
<path d="M290 881 c0 -4 11 -6 25 -3 32 6 31 -1 -5 -54 -16 -24 -26 -44 -22
-44 7 0 72 95 72 105 0 3 -16 5 -35 5 -19 0 -35 -4 -35 -9z"/>
<path d="M384 835 c0 -30 4 -55 8 -55 4 0 7 3 7 8 -4 24 3 41 19 45 16 4 16 5
0 6 -27 2 -23 39 5 44 17 3 16 5 -8 6 -30 1 -30 1 -31 -54z"/>
<path d="M472 833 l2 -58 3 53 c3 36 8 52 18 52 23 0 29 -22 11 -36 -17 -12
-17 -14 -1 -38 10 -14 24 -26 32 -26 11 0 8 6 -8 19 -21 17 -22 21 -10 44 16
31 8 47 -25 47 -23 0 -24 -3 -22 -57z"/>
<path d="M566 874 c-19 -18 -21 -65 -4 -82 29 -29 78 0 78 47 0 48 -42 68 -74
35z m52 -6 c25 -25 8 -78 -25 -78 -22 0 -37 44 -24 69 13 24 31 27 49 9z"/>
<path d="M664 834 c-1 -53 0 -55 24 -52 30 4 52 32 36 48 -8 8 -10 4 -10 -12
1 -16 -5 -24 -21 -26 -18 -3 -20 1 -16 20 4 13 15 29 25 36 27 20 23 42 -9 42
-27 0 -28 -2 -29 -56z m44 34 c-6 -18 -28 -21 -28 -4 0 9 7 16 16 16 9 0 14
-5 12 -12z"/>
<path d="M753 857 c-3 -52 5 -77 27 -77 10 0 21 4 24 9 4 5 -3 7 -14 4 -21 -6
-24 2 -20 65 1 17 -2 32 -7 32 -4 0 -9 -15 -10 -33z"/>
<path d="M818 852 c-1 -21 -2 -45 0 -55 5 -25 47 -22 60 6 6 12 21 37 32 55
l22 32 -36 0 c-20 0 -36 -4 -36 -9 0 -4 11 -6 25 -3 31 6 31 1 -1 -48 -38 -57
-57 -53 -52 10 4 58 -8 69 -14 12z"/>
<path d="M972 881 l28 -6 -30 -45 c-16 -24 -27 -46 -25 -49 6 -5 3 -9 42 57
l32 52 -37 -1 c-34 -1 -34 -2 -10 -8z"/>
<path d="M1078 835 c4 -56 10 -63 46 -49 16 6 23 54 8 54 -5 0 -8 -10 -8 -22
1 -14 -6 -24 -16 -26 -13 -3 -18 3 -18 21 0 14 6 28 13 30 10 4 10 6 0 6 -18
1 -16 31 2 31 8 0 15 -8 15 -17 0 -12 3 -14 11 -6 16 16 2 33 -29 33 -26 0
-27 -1 -24 -55z"/>
<path d="M1164 835 c0 -30 3 -55 8 -55 4 0 8 23 8 50 0 38 4 50 15 50 9 0 15
-9 15 -22 0 -18 2 -20 9 -9 14 22 1 41 -28 41 -25 0 -26 -3 -27 -55z"/>
<path d="M1260 833 c2 -32 6 -46 8 -31 2 18 10 28 25 31 l22 4 -22 2 c-16 1
-23 7 -23 22 0 17 5 20 32 17 29 -3 34 -8 46 -52 10 -34 17 -45 22 -35 5 7 5
16 0 19 -4 3 -11 22 -15 43 -7 36 -8 37 -54 37 l-46 0 5 -57z"/>
<path d="M1452 870 c0 -14 2 -19 5 -12 2 6 2 18 0 25 -3 6 -5 1 -5 -13z"/>
<path d="M1397 873 c-5 -7 -3 -21 3 -32 5 -11 10 -29 10 -40 0 -12 4 -21 9
-21 11 0 24 31 16 38 -3 3 -5 -1 -6 -9 -1 -8 -6 6 -13 31 -7 27 -15 40 -19 33z"/>
<path d="M1579 863 c-13 -15 -12 -15 9 -4 23 12 28 21 13 21 -5 0 -15 -7 -22
-17z"/>
<path d="M1190 827 c0 -15 37 -53 44 -46 2 2 -7 17 -20 32 -14 16 -24 22 -24
14z"/>
<path d="M425 790 c-16 -7 -17 -9 -3 -9 9 -1 20 4 23 9 7 11 7 11 -20 0z"/>
<path d="M910 790 c-13 -8 -12 -10 3 -10 9 0 17 5 17 10 0 12 -1 12 -20 0z"/>
<path d="M995 790 c-19 -8 -19 -9 3 -9 12 -1 22 4 22 9 0 6 -1 10 -2 9 -2 0
-12 -4 -23 -9z"/>
<path d="M1295 790 c-19 -8 -19 -9 3 -9 12 -1 22 4 22 9 0 6 -1 10 -2 9 -2 0
-12 -4 -23 -9z"/>
<path d="M338 783 c7 -3 16 -2 19 1 4 3 -2 6 -13 5 -11 0 -14 -3 -6 -6z"/>
</g>
</svg>
